<svg xmlns="http://www.w3.org/2000/svg" xmlns:xlink="http://www.w3.org/1999/xlink" viewBox="0 0 228.68 90.25"><defs><style>.cls-1,.cls-10,.cls-15,.cls-16{fill:none;}.cls-2{fill:#149fc4;}.cls-3{font-size:15.36px;font-family:Lato-Hairline, Lato;}.cls-4{clip-path:url(#clip-path);}.cls-5{fill:#222;}.cls-6{font-size:3.19px;font-family:Lato-Black, Lato;}.cls-7{letter-spacing:-0.03em;}.cls-8{letter-spacing:-0.08em;}.cls-9{letter-spacing:0em;}.cls-10{stroke:#fff;stroke-width:2px;}.cls-10,.cls-15,.cls-16{stroke-miterlimit:10;}.cls-10,.cls-11{opacity:0.52;}.cls-12{font-size:9.07px;font-family:Lato-Light, Lato;}.cls-13{letter-spacing:-0.02em;}.cls-14{letter-spacing:-0.08em;}.cls-15,.cls-16{stroke:#000;}.cls-15{stroke-width:0.25px;}</style><clipPath id="clip-path"><rect class="cls-1" y="13.14" width="81.11" height="77.23"/></clipPath></defs><title>logo</title><g id="Capa_2" data-name="Capa 2"><g id="OBJECTS"><path class="cls-2" d="M50.37,51.76a6.06,6.06,0,0,0-1-.83,8.89,8.89,0,0,0-1.1-.66,12.86,12.86,0,0,0-2.37-.91,18.91,18.91,0,0,0-5-.66h-.05a18.7,18.7,0,0,0-4.93.63,12.39,12.39,0,0,0-2.37.91,8.46,8.46,0,0,0-1.09.67,5.71,5.71,0,0,0-1,.86.19.19,0,0,0,.24.28A9.83,9.83,0,0,1,34,51.13a17.7,17.7,0,0,1,2.29-.51,28.88,28.88,0,0,1,4.59-.34H41a29.91,29.91,0,0,1,4.7.37,19,19,0,0,1,2.3.51,11,11,0,0,1,2.19.89l.09,0a.19.19,0,0,0,.14-.31Z"/><text class="cls-3" transform="translate(28.39 45.81)">TSL</text><g class="cls-4"><path class="cls-5" d="M40.58,13.14c-15.65,0-28.89.68-31,1.59l-.12,0-.06,0c-1.7.73-2.92,3.73-2.92,7.21v7.38H.92a.92.92,0,0,0-.92.92V43.22a.92.92,0,0,0,.92.92H4.61a.92.92,0,0,0,.92-.92V33.08h.92V65.35h12a.92.92,0,0,1,.92.92V70a.92.92,0,0,1-.92.92h-12v6.46a5.12,5.12,0,0,0,.92,3.19v7.88a1.84,1.84,0,0,0,1.84,1.84h5.53a1.84,1.84,0,0,0,1.84-1.84V82.87h48v5.53a1.84,1.84,0,0,0,1.84,1.84h5.53a1.84,1.84,0,0,0,1.84-1.84V80.53a5.12,5.12,0,0,0,.92-3.19V70.89h-12a.92.92,0,0,1-.92-.92V66.28a.92.92,0,0,1,.92-.92h12V33.08h.92V43.22a.92.92,0,0,0,.92.92h3.69a.92.92,0,0,0,.92-.92V30.31a.92.92,0,0,0-.92-.92H74.7V22c0-3.59-1.29-6.65-3.06-7.26-2-.92-15.31-1.61-31.06-1.61ZM12,16.48H69.16c1,0,1.84,2.06,1.84,4.61v3.69a.92.92,0,0,1-.92.92h-59a.92.92,0,0,1-.92-.92V21.09c0-2.55.83-4.61,1.84-4.61ZM10.14,27.54H71a1.84,1.84,0,0,1,1.84,1.84V57.05A1.84,1.84,0,0,1,71,58.9h-7.3l-1.62-.81,2.6,0a.92.92,0,1,0,0-1.84h0l-28.12-.19a.92.92,0,1,0,0,1.84h0l21.33.14,4.21,2.1-.32,0H19.37a1.84,1.84,0,0,1-.7-.14l5.24-3.25,22.85-1.48a.92.92,0,0,0-.06-1.84h-.06L17.41,55.37a.92.92,0,1,0,.09,1.84h0L20,57.05,17,58.9H10.14A1.84,1.84,0,0,1,8.3,57.05V29.39a1.84,1.84,0,0,1,1.84-1.84Zm0,0"/></g><text class="cls-6" transform="translate(18.22 22.31)">TRANSPO<tspan class="cls-7" x="15.13" y="0">R</tspan><tspan x="17.16" y="0">TES SAN</tspan><tspan class="cls-8" x="29.72" y="0">T</tspan><tspan class="cls-9" x="31.38" y="0">A LUCIA</tspan></text><path class="cls-2" d="M40.13,41.92"/><path class="cls-2" d="M41,41.92"/><path class="cls-10" d="M85.74,64.36"/><path class="cls-10" d="M85.74,81.85"/><g class="cls-11"><path class="cls-1" d="M85.2,73.1"/></g><path class="cls-10" d="M223.11,64.36"/><path class="cls-10" d="M223.11,81.85"/><g class="cls-11"><path class="cls-1" d="M222.57,73.1"/></g><path d="M96.21,47a1.34,1.34,0,0,1-.33.38.74.74,0,0,1-.45.13,1.09,1.09,0,0,1-.52-.15L94.27,47a5.2,5.2,0,0,0-.81-.34,3.23,3.23,0,0,0-1-.15,2.22,2.22,0,0,0-1.49.43,1.45,1.45,0,0,0-.49,1.16,1.06,1.06,0,0,0,.3.77,2.54,2.54,0,0,0,.78.53,8.27,8.27,0,0,0,1.1.41q.62.19,1.26.41a11.24,11.24,0,0,1,1.26.53,4.21,4.21,0,0,1,1.1.78A3.64,3.64,0,0,1,97,52.65a4.11,4.11,0,0,1,.3,1.64,5.35,5.35,0,0,1-.37,2,4.66,4.66,0,0,1-1.07,1.62A5,5,0,0,1,94.14,59a6.48,6.48,0,0,1-2.34.4,7.51,7.51,0,0,1-1.46-.15,8.69,8.69,0,0,1-1.44-.42,8.32,8.32,0,0,1-1.31-.64,5.53,5.53,0,0,1-1.07-.82l1.05-1.67a.85.85,0,0,1,.33-.31.92.92,0,0,1,.45-.12,1.2,1.2,0,0,1,.64.2l.73.44a5.93,5.93,0,0,0,.93.44,3.5,3.5,0,0,0,1.24.2,2.37,2.37,0,0,0,1.51-.43A1.63,1.63,0,0,0,94,54.77a1.28,1.28,0,0,0-.3-.88,2.29,2.29,0,0,0-.78-.56,7.16,7.16,0,0,0-1.09-.39l-1.26-.37a9.19,9.19,0,0,1-1.26-.51,4,4,0,0,1-1.09-.79,3.7,3.7,0,0,1-.78-1.22,4.86,4.86,0,0,1-.3-1.81,4.29,4.29,0,0,1,.35-1.69,4.35,4.35,0,0,1,1-1.47,5,5,0,0,1,1.66-1,6.12,6.12,0,0,1,2.25-.38,8.42,8.42,0,0,1,1.38.11,7.25,7.25,0,0,1,1.27.33,7,7,0,0,1,1.12.52,5.18,5.18,0,0,1,.93.68Z"/><path d="M113.38,59.21h-2.76a1.27,1.27,0,0,1-.76-.22,1.12,1.12,0,0,1-.42-.55l-.91-2.68h-5.84l-.91,2.68a1.22,1.22,0,0,1-1.16.77H97.83l5.95-15.37h3.65Zm-9.87-5.87h4.2l-1.41-4.21-.32-.94q-.19-.54-.36-1.18-.17.64-.35,1.19t-.34.95Z"/><path d="M116.89,43.87a1,1,0,0,1,.29.08,1,1,0,0,1,.24.16,2.79,2.79,0,0,1,.26.28l7.3,9.23q0-.44-.06-.86t0-.79V43.84H128V59.21h-1.86a1.71,1.71,0,0,1-.7-.13,1.49,1.49,0,0,1-.55-.46l-7.25-9.16q0,.4.05.79t0,.72v8.24h-3.14V43.84h1.88Z"/><path d="M141.73,43.84v2.83h-4.32V59.21h-3.56V46.67h-4.32V43.84Z"/><path d="M155.82,59.21h-2.76a1.27,1.27,0,0,1-.76-.22,1.12,1.12,0,0,1-.42-.55L151,55.76h-5.84l-.91,2.68a1.22,1.22,0,0,1-1.16.77h-2.78l5.95-15.37h3.65ZM146,53.34h4.2l-1.41-4.21-.32-.94q-.19-.54-.36-1.18-.17.64-.35,1.19t-.34.95Z"/><path d="M95.54,22.54v.22H90.17V36.82h-.24V22.76H84.52v-.22Z"/><path d="M99,29.92v6.9h-.24V22.54h3.31a5.8,5.8,0,0,1,3.43.87,3.11,3.11,0,0,1,1.2,2.7,3.56,3.56,0,0,1-.34,1.57,3.38,3.38,0,0,1-.95,1.19,4.57,4.57,0,0,1-1.46.77,6.52,6.52,0,0,1-1.88.3.72.72,0,0,1,.18.11l.16.16L108,36.82h-.16l-.13,0a.35.35,0,0,1-.13-.11l-5.35-6.41a1.33,1.33,0,0,0-.18-.18.69.69,0,0,0-.19-.11,1,1,0,0,0-.25-.06l-.36,0Zm0-.2h2.88a6.64,6.64,0,0,0,1.89-.25,4.32,4.32,0,0,0,1.44-.71,3.14,3.14,0,0,0,.92-1.13,3.45,3.45,0,0,0,.32-1.52,2.93,2.93,0,0,0-1.13-2.56,5.54,5.54,0,0,0-3.25-.81H99Z"/><path d="M120.93,36.82h-.18a.12.12,0,0,1-.12-.1l-2-4.78H111.1l-2,4.78a.13.13,0,0,1-.14.1h-.16l6-14.29h.2Zm-9.74-5.08h7.37L115,23.29l-.09-.21-.08-.21-.08.21-.09.21Z"/><path d="M123.8,22.62l10.11,13.76a.54.54,0,0,1,0-.11V22.54h.2V36.82H134a.14.14,0,0,1-.11-.07L123.77,22.92a.78.78,0,0,1,0,.13V36.82h-.2V22.54h.08A.16.16,0,0,1,123.8,22.62Z"/><path d="M145.56,23.84a.15.15,0,0,1-.11.06q-.09,0-.28-.21a3.08,3.08,0,0,0-.55-.45,4.34,4.34,0,0,0-.93-.45,4.78,4.78,0,0,0-3,.06,3.41,3.41,0,0,0-1.14.72,3,3,0,0,0-.7,1,3.26,3.26,0,0,0-.24,1.23,2.7,2.7,0,0,0,.32,1.38,3,3,0,0,0,.84.93,5,5,0,0,0,1.19.63l1.37.48q.69.23,1.37.48a4.78,4.78,0,0,1,1.19.65,3.08,3.08,0,0,1,.84,1,2.93,2.93,0,0,1,.32,1.44,4.47,4.47,0,0,1-.3,1.64,3.84,3.84,0,0,1-.86,1.33,4,4,0,0,1-1.38.89,5,5,0,0,1-1.86.33,6,6,0,0,1-1.3-.13,4.44,4.44,0,0,1-1-.37,4.33,4.33,0,0,1-.87-.58,6.7,6.7,0,0,1-.77-.78l0,0,.05,0,.07,0s.1,0,.18.13l.32.33a6.1,6.1,0,0,0,.49.42,3.86,3.86,0,0,0,.69.42,4.6,4.6,0,0,0,.93.33,5.08,5.08,0,0,0,1.2.13,4.59,4.59,0,0,0,1.76-.32,3.92,3.92,0,0,0,1.31-.85,3.62,3.62,0,0,0,.82-1.25,4.12,4.12,0,0,0,.28-1.52,3,3,0,0,0-.21-1.16,2.6,2.6,0,0,0-.57-.84,3.5,3.5,0,0,0-.83-.6,8.34,8.34,0,0,0-1-.45q-.54-.2-1.1-.37T141,29a7.83,7.83,0,0,1-1-.46,3.41,3.41,0,0,1-.83-.63,2.77,2.77,0,0,1-.57-.89,3.23,3.23,0,0,1-.21-1.22,3.45,3.45,0,0,1,.26-1.31,3.24,3.24,0,0,1,.74-1.11,3.61,3.61,0,0,1,1.21-.77,4.45,4.45,0,0,1,1.65-.29,4.72,4.72,0,0,1,1.84.34,4.53,4.53,0,0,1,1.51,1.07Z"/><path d="M150.19,30.7v6.12h-.24V22.54h3.22a5.58,5.58,0,0,1,3.59,1A3.71,3.71,0,0,1,158,26.62a3.81,3.81,0,0,1-.35,1.64,3.76,3.76,0,0,1-1,1.29,4.76,4.76,0,0,1-1.53.85,6,6,0,0,1-2,.31Zm0-.2h3a5.64,5.64,0,0,0,1.9-.3,4.36,4.36,0,0,0,1.44-.83,3.69,3.69,0,0,0,.92-1.23,3.57,3.57,0,0,0,.33-1.52,3.6,3.6,0,0,0-1.15-2.89,5.18,5.18,0,0,0-3.44-1h-3Z"/><path d="M173.64,29.68a8.94,8.94,0,0,1-.48,3A6.64,6.64,0,0,1,171.8,35a5.88,5.88,0,0,1-2.09,1.45,7.34,7.34,0,0,1-5.35,0A5.89,5.89,0,0,1,162.28,35a6.64,6.64,0,0,1-1.36-2.29,9.76,9.76,0,0,1,0-6.08,6.68,6.68,0,0,1,1.36-2.3,5.92,5.92,0,0,1,2.08-1.46,6.8,6.8,0,0,1,2.67-.51,6.92,6.92,0,0,1,2.68.51,5.85,5.85,0,0,1,2.09,1.45,6.69,6.69,0,0,1,1.36,2.3A9,9,0,0,1,173.64,29.68Zm-.27,0a8.93,8.93,0,0,0-.46-3,6.47,6.47,0,0,0-1.3-2.23,5.56,5.56,0,0,0-2-1.4,6.66,6.66,0,0,0-2.58-.48,6.57,6.57,0,0,0-2.55.48,5.62,5.62,0,0,0-2,1.4,6.55,6.55,0,0,0-1.32,2.23,9.58,9.58,0,0,0,0,6,6.5,6.5,0,0,0,1.32,2.22,5.65,5.65,0,0,0,2,1.4,6.57,6.57,0,0,0,2.55.48,6.66,6.66,0,0,0,2.58-.48,5.58,5.58,0,0,0,2-1.4,6.42,6.42,0,0,0,1.3-2.22A8.88,8.88,0,0,0,173.37,29.68Z"/><path d="M178.27,29.92v6.9H178V22.54h3.31a5.8,5.8,0,0,1,3.43.87,3.11,3.11,0,0,1,1.2,2.7,3.56,3.56,0,0,1-.34,1.57,3.38,3.38,0,0,1-.95,1.19,4.57,4.57,0,0,1-1.46.77,6.52,6.52,0,0,1-1.88.3.72.72,0,0,1,.18.11l.16.16,5.57,6.63h-.16l-.13,0a.35.35,0,0,1-.13-.11l-5.35-6.41a1.33,1.33,0,0,0-.18-.18.69.69,0,0,0-.19-.11,1,1,0,0,0-.25-.06l-.36,0Zm0-.2h2.88a6.64,6.64,0,0,0,1.89-.25,4.32,4.32,0,0,0,1.44-.71,3.14,3.14,0,0,0,.92-1.13,3.45,3.45,0,0,0,.32-1.52,2.93,2.93,0,0,0-1.13-2.56,5.54,5.54,0,0,0-3.25-.81h-3.06Z"/><path d="M198.84,22.54v.22h-5.37V36.82h-.24V22.76h-5.41v-.22Z"/><path d="M210,22.54v.22h-8.1v6.69h6.88v.22h-6.88V36.6h8.12l0,.22H201.7V22.54Z"/><path d="M220.49,23.84a.15.15,0,0,1-.11.06q-.09,0-.28-.21a3.08,3.08,0,0,0-.55-.45,4.34,4.34,0,0,0-.93-.45,4.78,4.78,0,0,0-3,.06,3.41,3.41,0,0,0-1.14.72,3,3,0,0,0-.7,1,3.26,3.26,0,0,0-.24,1.23,2.7,2.7,0,0,0,.32,1.38,3,3,0,0,0,.84.93,5,5,0,0,0,1.19.63l1.37.48q.69.23,1.37.48a4.78,4.78,0,0,1,1.19.65,3.08,3.08,0,0,1,.84,1A2.93,2.93,0,0,1,221,32.8a4.47,4.47,0,0,1-.3,1.64,3.84,3.84,0,0,1-.86,1.33,4,4,0,0,1-1.38.89,5,5,0,0,1-1.86.33,6,6,0,0,1-1.3-.13,4.44,4.44,0,0,1-1-.37,4.33,4.33,0,0,1-.87-.58,6.7,6.7,0,0,1-.77-.78l0,0,.05,0,.07,0s.1,0,.18.13l.32.33a6.1,6.1,0,0,0,.49.42,3.86,3.86,0,0,0,.69.42,4.6,4.6,0,0,0,.93.33,5.08,5.08,0,0,0,1.2.13,4.59,4.59,0,0,0,1.76-.32,3.92,3.92,0,0,0,1.31-.85,3.62,3.62,0,0,0,.82-1.25,4.12,4.12,0,0,0,.28-1.52,3,3,0,0,0-.21-1.16,2.6,2.6,0,0,0-.57-.84,3.5,3.5,0,0,0-.83-.6,8.34,8.34,0,0,0-1-.45q-.54-.2-1.1-.37T216,29a7.83,7.83,0,0,1-1-.46,3.41,3.41,0,0,1-.83-.63,2.77,2.77,0,0,1-.57-.89,3.23,3.23,0,0,1-.21-1.22,3.45,3.45,0,0,1,.26-1.31,3.24,3.24,0,0,1,.74-1.11,3.61,3.61,0,0,1,1.21-.77,4.45,4.45,0,0,1,1.65-.29,4.72,4.72,0,0,1,1.84.34,4.53,4.53,0,0,1,1.51,1.07Z"/><path d="M165.53,56.36h5.7v2.85H162V43.84h3.57Z"/><path d="M179.31,56.4a3.28,3.28,0,0,0,1.28-.24,2.59,2.59,0,0,0,1-.68,3,3,0,0,0,.6-1.08,4.71,4.71,0,0,0,.21-1.45v-9.1h3.57v9.1a7.11,7.11,0,0,1-.46,2.59,5.82,5.82,0,0,1-1.31,2,5.93,5.93,0,0,1-2.08,1.33,8.25,8.25,0,0,1-5.52,0,5.92,5.92,0,0,1-2.08-1.33,5.75,5.75,0,0,1-1.31-2,7.17,7.17,0,0,1-.45-2.59v-9.1h3.56v9.09a4.73,4.73,0,0,0,.21,1.45,3.07,3.07,0,0,0,.6,1.09,2.57,2.57,0,0,0,1,.69A3.28,3.28,0,0,0,179.31,56.4Z"/><path d="M198.55,55.24a.72.72,0,0,1,.25,0,.69.69,0,0,1,.24.16l1.41,1.49a5.87,5.87,0,0,1-2.33,1.83,8.13,8.13,0,0,1-3.31.62,7.87,7.87,0,0,1-3.14-.6,6.8,6.8,0,0,1-2.35-1.65,7.25,7.25,0,0,1-1.48-2.49,9.18,9.18,0,0,1-.52-3.13,8.24,8.24,0,0,1,.59-3.16,7.28,7.28,0,0,1,4.19-4.11,8.84,8.84,0,0,1,3.26-.58,8.29,8.29,0,0,1,1.63.15,8,8,0,0,1,1.43.42,6.73,6.73,0,0,1,1.22.64,5.9,5.9,0,0,1,1,.83l-1.2,1.61a1.52,1.52,0,0,1-.27.27.71.71,0,0,1-.44.12.79.79,0,0,1-.36-.08l-.36-.21-.42-.26a3.19,3.19,0,0,0-.54-.26,4.49,4.49,0,0,0-.73-.21,5,5,0,0,0-1-.08,4.46,4.46,0,0,0-1.77.34,3.88,3.88,0,0,0-1.38,1,4.55,4.55,0,0,0-.9,1.55,6.06,6.06,0,0,0-.32,2,6.32,6.32,0,0,0,.32,2.1,4.61,4.61,0,0,0,.88,1.55,3.71,3.71,0,0,0,1.29,1,3.86,3.86,0,0,0,1.58.33,7.52,7.52,0,0,0,.89,0,3.64,3.64,0,0,0,.74-.16,3.46,3.46,0,0,0,.65-.3,4.36,4.36,0,0,0,.63-.46,1.25,1.25,0,0,1,.27-.17A.72.72,0,0,1,198.55,55.24Z"/><path d="M206,59.21H202.4V43.84H206Z"/><path d="M223.14,59.21h-2.76a1.27,1.27,0,0,1-.76-.22,1.12,1.12,0,0,1-.42-.55l-.91-2.68h-5.84l-.91,2.68a1.22,1.22,0,0,1-1.16.77h-2.78l5.95-15.37h3.65Zm-9.87-5.87h4.2l-1.41-4.21-.32-.94q-.19-.54-.36-1.18-.17.64-.35,1.19t-.34.95Z"/><text class="cls-12" transform="translate(86.53 75.5)">Belg<tspan class="cls-13" x="17.17" y="0">r</tspan><tspan x="20.54" y="0">ano 374 - Monteros - </tspan><tspan class="cls-14" x="103.63" y="0">T</tspan><tspan x="108.2" y="0" xml:space="preserve">ucumán  </tspan></text><line class="cls-15" x1="86.53" y1="65.69" x2="226.79" y2="65.96"/><line class="cls-16" x1="91.92" y1="0.14" x2="91.92"/></g></g></svg>